<?xml version="1.0" encoding="utf-8"?>
<!-- Generator: Adobe Illustrator 25.4.1, SVG Export Plug-In . SVG Version: 6.00 Build 0)  -->
<svg version="1.1" id="レイヤー_1" xmlns="http://www.w3.org/2000/svg" xmlns:xlink="http://www.w3.org/1999/xlink" x="0px"
	 y="0px" viewBox="0 0 56 101" style="enable-background:new 0 0 56 101;" xml:space="preserve">
<style type="text/css">
	.st0{opacity:0.1;fill:#736357;enable-background:new    ;}
	.st1{opacity:0.1;}
	.st2{fill:#736357;}
</style>
<rect y="75.9" class="st0" width="56" height="1.3"/>
<rect y="95.1" class="st0" width="56" height="1.3"/>
<path class="st0" d="M56,82.3v-1.7c-2.8,0-5.1,2-5.6,4.7h-2.8c-0.5-3.1-3.5-5.2-6.6-4.7c-2.4,0.4-4.3,2.3-4.7,4.7h-2.8
	c-0.5-3.1-3.5-5.2-6.6-4.6c-2.4,0.4-4.2,2.3-4.6,4.6h-2.8c-0.5-3.1-3.5-5.2-6.6-4.7c-2.4,0.4-4.3,2.3-4.7,4.7H5.6
	c-0.5-2.7-2.8-4.7-5.6-4.7l0,0v1.7l0,0c2.1,0,3.9,1.7,3.9,3.8C3.9,88.3,2.2,90,0,90c0,0,0,0,0,0l0,0v1.7l0,0c2.8,0,5.2-2,5.6-4.7
	h2.8c0.5,3.1,3.5,5.2,6.6,4.7c2.4-0.4,4.3-2.3,4.7-4.7h2.8c0.5,3.1,3.5,5.2,6.6,4.6c2.4-0.4,4.2-2.3,4.6-4.6h2.8
	c0.5,3.1,3.5,5.2,6.6,4.7c2.4-0.4,4.3-2.3,4.7-4.7h2.8c0.5,2.7,2.8,4.7,5.6,4.7V90c-2.1,0-3.9-1.7-3.9-3.8
	C52.1,84,53.9,82.3,56,82.3C56,82.3,56,82.3,56,82.3L56,82.3z M14,90c-2.1,0-3.8-1.8-3.8-3.9c0-2.1,1.8-3.8,3.9-3.8
	c2.1,0,3.8,1.7,3.8,3.8C17.9,88.3,16.1,90,14,90C14,90,14,90,14,90z M28,90c-2.1,0-3.8-1.8-3.8-3.9s1.8-3.8,3.9-3.8
	c2.1,0,3.8,1.7,3.8,3.8C31.9,88.3,30.2,90,28,90C28,90,28,90,28,90z M42,90c-2.1,0-3.8-1.8-3.8-3.9s1.8-3.8,3.9-3.8
	c2.1,0,3.8,1.7,3.8,3.8C45.9,88.3,44.1,90,42,90z"/>
<path class="st0" d="M33.4,24V11.4L31,8.9v17.7L33.4,24z M54.6,28.4l1.4,1.5V5.5L54.6,7V28.4z M52.7,26.4V9l-2.4,2.6v12.3L52.7,26.4
	z M24.8,26.5V8.9l-2.4,2.5v12.5L24.8,26.5z M26.7,28.5l1.3,1.3l1.2-1.3V6.9L28,5.6L26.7,7L26.7,28.5z M5.6,23.9V11.6L3.2,9v17.4
	L5.6,23.9z M1.3,28.4V7L0,5.6v24.2L1.3,28.4z M56,35.4v-2.9h-2.7l-18-19.1V22l3.3-3.5l2.6,2.7L30.5,32.5h-5.2l-17.9-19v8.3l3.2-3.4
	l2.6,2.7L2.6,32.5H0v2.9L56,35.4z M0,0v2.9h2.6l18,19.1v-8.5l-3.3,3.5l-2.6-2.7L25.4,2.9h5.2l17.9,19v-8.4l-3.2,3.4l-2.6-2.7
	L53.3,2.9H56V0H0z"/>
<g class="st1">
	<polygon class="st2" points="56,43.5 56,43.5 56,43.5 	"/>
	<path class="st2" d="M54.6,55.6V44.9l1.4-1.5l0,0v-3.3H0v0.7l0,0v2.7L1.3,45v10.6h1.9v-8.7l2.4,2.5v6.1h1.9v-4.1l17.3,18.4H0v1.3
		h56v-1.3H31.1l17.3-18.4v4.1h1.9v-6.1l2.4-2.5v8.7L54.6,55.6z M35.3,59.9v-4.3h-1.9v6.3L31,64.4v-8.9h-1.9v10.8l-1.2,1.3l-1.3-1.3
		V55.6h-1.9v8.8l-2.4-2.5v-6.3h-1.9v4.3L3.2,41.5h49.5L35.3,59.9z"/>
</g>
</svg>
