<svg version="1.1" xmlns="http://www.w3.org/2000/svg" xmlns:xlink="http://www.w3.org/1999/xlink" x="0px" y="0px" viewBox="0 0 180 66" style="enable-background:new 0 0 180 66;" xml:space="preserve"><style type="text/css">.st0{fill:#FFFFFF;}.st1{fill:#E99523;}</style><g><g><path class="st0" d="M37.9,58.4c-0.3-0.3-1.8-0.7-5.1-1.6c-0.5,0.5-1.4,1.5-3.4,3c2.1,0.4,7.1,0.6,7.9,0.3C38.6,59.6,38.2,58.7,37.9,58.4z"/><path class="st0" d="M1.8,4.2C1.1,4.3-0.4,5,0.1,5.7c0.3,0.4,3.8,0.7,7,1.8c0.8-1,1.6-1.7,2.1-2.1C4.8,4.1,2.3,4.1,1.8,4.2z"/><path class="st0" d="M28.2,16.6c-1.9-4.9-7.7-7.8-13.9-9.4c-0.6,0.4-1.7,1.6-2.1,2.5c6.9,2.9,10.2,5.7,11.3,8.6c1.8,4.5-3.6,11.8-6.8,15.7c-3.7,4.5-7.2,9.1-5.9,13.7c1.5,5.4,8.5,9.8,12.2,10.5c0.5,0.1,3.2-2.7,3.2-2.8c-4.9-2-10.6-5.6-10.9-10.6c-0.2-3.7,3.3-8.4,6-11.6C25.7,27.9,30.5,22.5,28.2,16.6z"/></g><g><path class="st1" d="M20,0C17.8-0.6-1.8,10.7,2.8,24.7c1.6,4.7,8.8,7.4,12.8,9l1.8-2C12.9,30,9.9,28.1,8,24.1c-5.1-11,10.4-22,11.9-23C20.7,0.6,20.4,0.1,20,0z"/><path class="st1" d="M37.4,44.2c-2.2-6.7-9.3-9.2-14.8-11c0,0-1.2,0.9-1.8,2c5.3,1.9,9.2,3.6,11,8.7c1.3,3.8-1.3,10.3-8.3,15.2c-3.1,2.2-5.1,3.4-6,4c-1.3,0.9-2.3,3.1-0.2,2.7c0,0,5.7-2.3,10.7-6.3C29.2,58.7,39.7,51.1,37.4,44.2z"/></g><path class="st0" d="M65.2,12.4H49.4h-0.8v3.1l0.7,0.1c4,0.3,4,0.3,4,4.6v22.7c0,4.3-0.1,4.4-4.5,4.7l-0.8,0.1v3.1h14.1c7.4,0,13-1.6,17.2-4.9c4.7-3.6,7.3-9,7.3-15.7c0-5.1-1.8-9.6-5-12.7C78.2,14,72.9,12.4,65.2,12.4z M65,47c-4,0-5.2-1-5.2-4.5V19c0-2,0.2-2.4,0.4-2.5c0.1-0.1,0.8-0.6,3.9-0.6c3.7,0,6.8,0.7,9.2,2.2c4,2.4,6.3,6.9,6.3,12.8C79.6,38.7,75.8,47,65,47z M105.4,12.4H89.6h-0.8v3.1l0.7,0.1c4,0.3,4,0.3,4,4.6v22.7c0,4.3-0.1,4.4-4.5,4.7l-0.8,0.1v3.1h14.1c7.4,0,13-1.6,17.2-4.9c4.7-3.6,7.2-9,7.2-15.7c0-5.1-1.8-9.6-5-12.7C118.3,14,113.1,12.4,105.4,12.4z M105.2,47c-4,0-5.2-1-5.2-4.5V19c0-2,0.2-2.4,0.4-2.5c0.1-0.1,0.8-0.6,3.9-0.6c3.7,0,6.8,0.7,9.2,2.2c4,2.4,6.3,6.9,6.3,12.8C119.7,38.7,115.9,47,105.2,47zM151,29.9c3.7-1.8,5.8-4.6,5.8-8.3c0-2.9-1.3-5.6-3.5-7.1c-2-1.4-4.8-2.1-8.9-2.1h-14.5H129v3.1l0.8,0.1c4,0.3,4,0.3,4,4.5v22.8c0,4.2,0,4.2-4.4,4.5l-0.8,0.1v3.1h13.3c4.8,0,8.6-0.8,11.4-2.4c3.7-2,5.8-5.3,5.8-9.2C159,35.8,157.5,31.7,151,29.9z M140.1,18.4c0-1.8,0.2-2,0.3-2.1c0.3-0.2,1.3-0.4,2.7-0.4c6,0,6.7,4.5,6.7,6.4c0,4.4-2.4,6.4-7.9,6.4c0,0-1.1,0-1.8,0C140.1,27.3,140.1,18.4,140.1,18.4z M144,47.1c-3,0-3.9-0.5-3.9-4.3c0,0,0-9.2,0-10.6c0.8,0,1.7,0,1.7,0c6.7,0,10,2.4,10,7.5C151.9,46.3,146.4,47.1,144,47.1z M179.2,12.4h-15.4v3.1l0.8,0.1c4.1,0.3,4.3,0.3,4.3,4.7v19.2c0,4.5-0.1,7.9-0.6,10.6c-0.6,3.2-2.2,5.4-5,6.7l-0.7,0.3l1.3,3l0.7-0.2c1.7-0.5,3.7-1.8,5.6-3.4c3.8-3.5,5.1-7.5,5.1-15.2v-21c0-4.3,0.2-4.4,4-4.7l0.7-0.1v-3.1L179.2,12.4L179.2,12.4z"/></g></svg>